<?xml version="1.0" encoding="UTF-8"?>
<svg id="_레이어_2" data-name="레이어 2" xmlns="http://www.w3.org/2000/svg" viewBox="0 0 512 512.04">
  <defs>
    <style>
      .cls-1 {
        fill: #a1be53;
      }

      .cls-2 {
        fill: #231815;
      }
    </style>
  </defs>
  <g id="_레이어_1-2" data-name="레이어 1">
    <path class="cls-1" d="M502,10V502.04H10V10H502m10-10H0V512.04H512V0h0Z"/>
    <path class="cls-2" d="M245.83,251.4h-59.29L79.05,100.51c-6.31-8.82-10.67-15.46-13.09-19.93h-.73c.97,8.49,1.46,21.44,1.46,38.85V251.4H11.22V11.24h63.29l103.48,146.21c4.73,6.59,9.09,13.12,13.09,19.59h.73c-.97-5.58-1.46-16.58-1.46-32.99V11.24h55.47V251.4Z"/>
    <path class="cls-2" d="M500.74,503.11h-50.07v-150.6c0-16.26,.63-34.23,1.88-53.89h-1.26c-2.62,15.45-4.97,26.56-7.06,33.35l-52.73,171.14h-41.44l-53.68-169.38c-1.47-4.56-3.82-16.26-7.06-35.11h-1.41c1.36,24.81,2.04,46.58,2.04,65.3v139.19h-45.67V251.4h74.24l45.99,149.2c3.66,11.94,6.33,23.93,8,35.98h.94c2.82-13.92,5.81-26.03,8.95-36.33l45.98-148.85h72.35v251.71Z"/>
  </g>
</svg>