<?xml version="1.0" encoding="UTF-8"?>
<svg id="_레이어_2" data-name="레이어 2" xmlns="http://www.w3.org/2000/svg" viewBox="0 0 521.63 512.01">
  <defs>
    <style>
      .cls-1 {
        fill: #a1be53;
      }

      .cls-2 {
        fill: #231815;
      }
    </style>
  </defs>
  <g id="_레이어_1-2" data-name="레이어 1">
    <polygon class="cls-1" points="521.63 1.08 468.41 1.08 468.41 54.3 521.63 54.3 521.63 1.08 521.63 1.08"/>
    <path class="cls-2" d="M250,250h-63.18L72.29,92.92c-6.72-9.18-11.37-16.1-13.95-20.75h-.78c1.03,8.83,1.55,22.32,1.55,40.45V250H0V0H67.44l110.27,152.2c5.04,6.86,9.69,13.66,13.95,20.4h.78c-1.04-5.81-1.55-17.26-1.55-34.34V0h59.11V250Z"/>
    <path class="cls-2" d="M521.63,512.01h-53.35v-156.77c0-16.93,.67-35.63,2.01-56.09h-1.34c-2.79,16.08-5.3,27.65-7.53,34.72l-56.19,178.15h-44.15l-57.2-176.32c-1.56-4.75-4.07-16.93-7.53-36.54h-1.51c1.45,25.83,2.18,48.48,2.18,67.97v144.89h-48.67V250h79.11l49,155.31c3.9,12.42,6.74,24.91,8.53,37.46h1c3.01-14.49,6.19-27.1,9.53-37.82l49-154.94h77.1v262.01Z"/>
  </g>
</svg>